<?xml version="1.0" standalone="no"?>
<!DOCTYPE svg PUBLIC "-//W3C//DTD SVG 20010904//EN"
 "http://www.w3.org/TR/2001/REC-SVG-20010904/DTD/svg10.dtd">
<svg version="1.0" xmlns="http://www.w3.org/2000/svg"
 width="760.000000pt" height="772.000000pt" viewBox="0 0 760.000000 772.000000"
 preserveAspectRatio="xMidYMid meet">

<g transform="translate(0.000000,772.000000) scale(0.100000,-0.100000)"
fill="#000000" stroke="none">
<path d="M2 5718 c1 -1102 5 -1904 9 -1783 4 130 15 281 28 370 11 83 23 168
26 190 3 22 8 54 11 70 2 17 6 41 9 55 2 14 8 37 13 51 6 14 17 63 26 110 9
46 25 108 36 138 11 29 21 68 22 87 1 19 5 34 10 34 5 0 7 4 3 9 -3 5 -1 12 5
16 13 8 52 134 44 146 -3 5 -1 9 5 9 6 0 17 21 24 48 14 45 46 122 87 207 10
22 40 85 66 140 25 55 55 111 65 124 11 13 19 32 19 42 0 11 5 19 10 19 6 0
14 8 18 18 6 14 40 73 87 150 6 9 28 43 50 76 22 32 45 67 51 78 6 10 20 29
31 41 11 12 32 40 45 62 22 35 58 78 135 163 12 13 25 33 28 43 4 10 11 18 18
16 6 -1 11 5 12 13 0 8 9 19 20 24 11 5 36 29 54 53 30 38 73 82 203 206 16
15 33 27 36 27 4 0 21 15 37 33 17 17 46 43 65 57 44 30 85 72 82 83 -1 5 1 6
6 3 5 -3 24 8 43 24 19 16 40 29 47 30 7 0 15 6 18 14 3 8 19 20 35 26 16 7
29 16 29 21 0 5 5 9 10 9 12 0 94 52 98 63 2 4 8 7 13 7 9 0 119 69 129 81 3
3 19 12 35 21 17 8 79 40 139 72 59 31 114 56 122 56 8 0 14 5 14 11 0 5 4 8
8 5 5 -3 22 3 39 14 17 10 64 30 104 45 40 14 76 30 79 34 3 4 25 12 50 18 25
6 70 21 100 33 30 12 73 26 95 31 22 5 49 14 60 19 11 6 40 14 65 19 68 14 89
19 99 25 4 3 26 8 47 10 21 3 75 12 119 21 97 20 113 22 190 31 33 3 63 8 67
10 4 2 60 7 125 10 65 3 120 8 122 10 2 2 -806 4 -1797 4 l-1802 0 2 -2002z"/>
<path d="M3961 7716 c2 -2 60 -7 127 -10 68 -3 127 -8 131 -10 4 -3 29 -7 57
-10 27 -3 60 -8 74 -10 14 -3 71 -12 126 -21 56 -8 115 -20 130 -26 16 -6 38
-13 49 -15 11 -3 40 -9 65 -15 25 -5 51 -10 58 -11 6 -1 12 -6 12 -11 0 -6 3
-8 6 -4 3 3 18 1 33 -5 14 -5 35 -12 46 -14 40 -7 232 -75 270 -94 22 -11 45
-20 53 -20 7 0 39 -14 72 -31 33 -17 65 -32 72 -33 7 -1 34 -14 59 -29 25 -15
49 -27 54 -27 14 0 114 -50 120 -60 3 -6 26 -15 51 -21 24 -6 44 -17 44 -23 0
-6 33 -29 74 -50 41 -20 88 -50 106 -64 17 -15 47 -36 65 -47 46 -28 149 -98
155 -105 3 -4 32 -26 65 -50 33 -23 70 -52 81 -64 12 -11 55 -50 95 -86 215
-189 532 -531 604 -651 24 -40 30 -49 78 -120 46 -69 105 -173 147 -259 18
-36 40 -79 48 -97 9 -17 19 -30 24 -27 4 3 5 -2 2 -10 -6 -17 32 -106 46 -106
4 0 13 -20 19 -45 6 -25 23 -71 37 -103 14 -31 32 -70 39 -87 12 -30 48 -144
49 -157 1 -3 4 -10 9 -14 4 -4 7 -15 7 -24 0 -10 11 -51 25 -93 13 -42 26 -86
29 -99 2 -13 9 -41 14 -63 6 -22 16 -74 23 -115 12 -71 14 -82 22 -112 9 -32
19 -91 22 -121 1 -17 8 -77 14 -132 6 -55 15 -138 20 -185 5 -49 9 687 10
1753 l1 1837 -1822 0 c-1002 0 -1819 -2 -1817 -4z"/>
<path d="M5085 7260 c-3 -6 1 -7 9 -4 9 3 16 1 16 -5 0 -6 5 -11 11 -11 8 0 8
5 -1 15 -14 17 -26 19 -35 5z"/>
<path d="M5180 7216 c0 -2 7 -7 16 -10 8 -3 12 -2 9 4 -6 10 -25 14 -25 6z"/>
<path d="M5239 7187 c4 -4 20 -9 35 -11 16 -2 32 -9 37 -17 8 -12 10 -12 19 1
9 13 10 13 10 0 0 -18 58 -53 72 -43 6 3 8 2 5 -4 -4 -6 13 -19 36 -29 70 -31
224 -122 372 -220 271 -179 453 -341 753 -669 40 -44 163 -206 224 -295 123
-178 225 -362 304 -545 153 -357 236 -665 291 -1075 25 -192 26 -725 0 -925
-104 -827 -431 -1514 -988 -2075 -142 -144 -169 -169 -289 -266 -256 -208
-549 -389 -807 -500 -296 -126 -630 -222 -903 -259 -63 -9 -144 -20 -180 -26
-122 -20 -617 -23 -805 -5 -386 37 -699 113 -1060 256 -256 101 -551 276 -824
488 -122 95 -138 110 -307 277 -283 282 -449 502 -608 810 -210 403 -354 843
-411 1255 -29 201 -43 436 -40 632 2 75 -1 152 -5 170 -7 30 -8 28 -9 -20 -1
-32 -5 -51 -11 -47 -17 10 -6 -596 13 -695 9 -47 19 -110 22 -141 3 -31 12
-80 19 -110 8 -30 17 -74 21 -99 4 -25 17 -79 31 -120 13 -41 24 -80 24 -88 0
-7 16 -59 35 -115 50 -148 60 -176 68 -183 4 -4 7 -14 7 -22 0 -8 13 -41 30
-73 16 -33 27 -59 25 -59 -3 0 2 -15 12 -33 9 -17 16 -35 15 -40 -1 -4 3 -7 9
-7 5 0 8 -4 5 -9 -4 -5 -3 -11 1 -13 11 -4 59 -100 55 -110 -1 -4 2 -8 8 -8 5
0 10 -6 10 -14 0 -7 9 -25 21 -40 11 -14 17 -31 13 -37 -4 -8 -3 -9 4 -5 11 6
16 -6 13 -26 0 -5 3 -8 9 -8 5 0 10 -5 10 -12 0 -6 10 -23 23 -36 12 -14 15
-22 7 -18 -13 7 -13 6 0 -6 17 -15 80 -105 80 -114 0 -4 11 -19 25 -36 14 -16
25 -35 25 -43 0 -7 7 -16 16 -19 9 -4 14 -13 10 -21 -3 -8 0 -14 6 -12 6 1 16
-8 23 -19 6 -12 16 -28 23 -36 6 -8 8 -19 4 -23 -4 -5 -1 -5 5 -1 8 4 17 -2
25 -18 6 -14 14 -26 18 -26 4 0 25 -24 47 -52 22 -29 67 -82 99 -118 32 -36
72 -81 88 -100 15 -19 24 -28 20 -20 -4 8 23 -18 62 -59 38 -40 68 -78 66 -82
-1 -5 1 -8 5 -8 21 3 34 -2 28 -11 -4 -6 -2 -9 2 -8 13 4 83 -59 75 -67 -4 -4
-2 -5 3 -3 6 1 53 -31 105 -72 113 -90 110 -88 241 -173 57 -38 115 -77 129
-86 14 -10 70 -42 125 -71 55 -29 105 -56 110 -60 6 -5 39 -20 75 -35 36 -15
83 -35 105 -45 133 -59 442 -157 625 -198 187 -43 416 -82 486 -83 32 -1 70
-5 84 -9 27 -9 14 -13 -40 -11 -34 1 -34 0 -10 -10 34 -16 580 -25 606 -11 13
7 7 9 -28 5 -25 -3 -48 -1 -51 4 -4 6 18 13 51 17 263 29 324 36 372 45 30 6
91 17 135 25 288 52 736 198 957 312 26 13 54 24 61 24 7 0 22 8 33 18 10 10
44 31 74 46 110 57 125 66 138 83 7 10 15 17 18 15 5 -3 116 67 124 78 3 4 19
14 35 23 17 9 42 27 57 40 15 13 39 32 54 43 28 20 85 67 119 97 11 10 33 28
48 40 34 26 285 278 344 345 78 88 271 352 283 387 2 6 11 18 20 27 9 10 27
39 40 65 12 27 28 55 35 63 13 15 117 219 153 300 153 343 260 747 309 1175
22 192 25 757 5 880 -7 44 -20 119 -28 168 -8 48 -12 92 -9 97 3 6 3 16 -1 22
-5 7 -9 19 -10 28 -1 8 -12 48 -23 89 -12 41 -20 80 -17 88 4 9 1 11 -6 7 -7
-5 -9 0 -6 14 3 12 3 22 -1 24 -5 2 -24 55 -43 118 -160 517 -368 889 -719
1285 -99 112 -264 278 -354 356 -149 130 -418 322 -550 394 -27 15 -76 42
-109 61 -32 19 -66 34 -76 34 -11 0 -22 5 -25 10 -12 20 -161 83 -197 84 -20
1 -33 -3 -29 -7z m-5072 -3219 c-3 -7 -5 -2 -5 12 0 14 2 19 5 13 2 -7 2 -19
0 -25z m3506 -3793 c123 -4 122 -15 -1 -15 -65 0 -102 4 -102 11 0 5 -4 8 -8
5 -4 -2 -14 0 -22 5 -11 8 -7 9 15 4 17 -4 70 -9 118 -10z m160 -6 c-8 -8 -16
-8 -30 0 -16 9 -14 10 12 11 21 0 26 -3 18 -11z m67 1 c0 -5 -7 -7 -15 -4 -8
4 -15 8 -15 10 0 2 7 4 15 4 8 0 15 -4 15 -10z"/>
<path d="M3991 7054 c-29 -47 -51 -87 -49 -89 3 -3 30 35 61 85 31 49 53 90
49 90 -4 -1 -31 -39 -61 -86z"/>
<path d="M4785 7010 c-25 -50 -44 -97 -42 -103 1 -5 25 34 51 87 26 54 45 100
42 103 -2 3 -26 -36 -51 -87z"/>
<path d="M3186 6902 c-31 -49 -56 -93 -56 -98 0 -5 28 33 61 85 33 51 58 95
56 97 -3 3 -30 -35 -61 -84z"/>
<path d="M3460 6940 c8 -5 20 -10 25 -10 6 0 3 5 -5 10 -8 5 -19 10 -25 10 -5
0 -3 -5 5 -10z"/>
<path d="M3527 6909 c7 -7 15 -10 18 -7 3 3 -2 9 -12 12 -14 6 -15 5 -6 -5z"/>
<path d="M4289 6824 c29 -14 59 -23 65 -21 10 3 -97 48 -112 46 -4 0 17 -12
47 -25z"/>
<path d="M3727 6721 c-42 -43 -77 -82 -77 -87 0 -5 39 30 87 76 48 47 89 86
92 88 2 1 -2 2 -11 2 -8 0 -49 -35 -91 -79z"/>
<path d="M4380 6790 c8 -5 22 -9 30 -9 10 0 8 3 -5 9 -27 12 -43 12 -25 0z"/>
<path d="M3904 6770 c33 -11 65 -19 70 -17 11 4 -44 21 -99 31 -16 3 -3 -3 29
-14z"/>
<path d="M2701 6766 c2 -2 15 -9 29 -15 24 -11 24 -11 6 3 -16 13 -49 24 -35
12z"/>
<path d="M3998 6743 c7 -3 16 -2 19 1 4 3 -2 6 -13 5 -11 0 -14 -3 -6 -6z"/>
<path d="M4038 6733 c7 -3 16 -2 19 1 4 3 -2 6 -13 5 -11 0 -14 -3 -6 -6z"/>
<path d="M4547 6634 c-43 -53 -75 -99 -72 -102 3 -3 11 2 18 11 6 9 39 50 72
92 l60 76 63 -5 c34 -4 92 -8 130 -11 l67 -4 -75 13 c-41 8 -100 17 -130 21
l-55 6 -78 -97z"/>
<path d="M5578 6651 c-73 -85 -85 -105 -69 -116 6 -3 11 1 11 10 0 9 32 52 70
94 39 43 70 81 70 84 0 18 -21 0 -82 -72z"/>
<path d="M2431 6704 c0 -11 3 -14 6 -6 3 7 2 16 -1 19 -3 4 -6 -2 -5 -13z"/>
<path d="M2410 6645 c-7 -20 -10 -39 -7 -42 3 -3 10 12 16 33 14 49 7 56 -9 9z"/>
<path d="M2918 6564 c-40 -42 -75 -81 -77 -87 -3 -11 39 31 132 131 17 17 28
32 24 32 -4 0 -39 -34 -79 -76z"/>
<path d="M5015 6633 c20 -18 100 -80 128 -98 53 -34 26 -6 -40 42 -68 49 -107
74 -88 56z"/>
<path d="M3085 6621 c11 -4 36 -11 55 -15 24 -4 29 -3 15 3 -11 4 -36 11 -55
15 -24 4 -29 3 -15 -3z"/>
<path d="M3195 6590 c11 -5 29 -8 40 -8 16 0 15 2 -5 8 -34 11 -60 11 -35 0z"/>
<path d="M5270 6364 c-87 -65 -112 -86 -106 -91 2 -2 44 25 94 61 49 36 96 66
104 66 7 0 52 -16 98 -36 137 -57 130 -55 130 -39 0 8 -8 15 -18 15 -10 0 -63
18 -117 40 -54 22 -101 40 -104 40 -3 -1 -40 -26 -81 -56z"/>
<path d="M6573 6385 c0 -8 4 -12 9 -9 5 3 6 10 3 15 -9 13 -12 11 -12 -6z"/>
<path d="M1928 6383 c7 -3 16 -2 19 1 4 3 -2 6 -13 5 -11 0 -14 -3 -6 -6z"/>
<path d="M1995 6370 c17 -4 41 -8 55 -8 22 0 22 1 -5 8 -16 4 -41 8 -55 8 -22
0 -22 -1 5 -8z"/>
<path d="M6590 6346 c0 -2 8 -10 18 -17 15 -13 16 -12 3 4 -13 16 -21 21 -21
13z"/>
<path d="M2254 6273 c-20 -38 -48 -87 -61 -111 -14 -24 -22 -46 -20 -49 3 -2
32 45 64 106 l58 110 120 3 120 4 -122 2 -122 2 -37 -67z"/>
<path d="M6091 6310 c0 -8 4 -24 9 -35 5 -13 9 -14 9 -5 0 8 -4 24 -9 35 -5
13 -9 14 -9 5z"/>
<path d="M1743 6215 c0 -44 2 -61 4 -37 2 23 2 59 0 80 -2 20 -4 1 -4 -43z"/>
<path d="M6650 6266 c0 -2 7 -7 16 -10 8 -3 12 -2 9 4 -6 10 -25 14 -25 6z"/>
<path d="M3723 6159 c-62 -18 -94 -81 -77 -146 10 -38 19 -26 20 27 1 59 20
86 73 100 48 13 108 -3 116 -31 5 -15 13 -19 28 -15 12 3 30 6 39 6 11 0 15 5
12 15 -4 9 -19 15 -38 15 -17 0 -41 6 -52 14 -28 20 -83 27 -121 15z"/>
<path d="M6240 6089 l-92 -61 7 -114 c5 -75 3 -114 -3 -114 -6 0 -34 19 -64
43 -80 63 -116 87 -130 86 -24 0 -202 -76 -206 -87 -2 -6 42 7 98 29 55 21
106 39 113 39 13 0 79 -45 149 -102 61 -51 72 -50 65 10 -4 26 -9 81 -13 122
l-6 75 103 68 c57 37 96 67 88 67 -9 0 -58 -27 -109 -61z"/>
<path d="M3317 6108 c-56 -15 -60 -30 -32 -144 24 -98 24 -99 5 -116 -30 -24
-26 -42 7 -33 16 4 30 9 32 11 3 2 -8 53 -22 112 -15 60 -27 116 -27 125 0 11
16 19 55 27 30 6 55 16 55 21 0 11 -23 10 -73 -3z"/>
<path d="M4242 6105 c-22 -10 -39 -28 -52 -57 -23 -50 -24 -68 -8 -103 14 -31
33 -33 25 -3 -10 36 13 107 41 128 32 26 97 26 140 0 34 -21 44 -13 15 12 -22
18 -78 38 -107 38 -12 -1 -36 -7 -54 -15z"/>
<path d="M3133 6059 c-40 -12 -58 -35 -20 -25 39 9 77 25 77 31 0 7 -19 5 -57
-6z"/>
<path d="M4470 6019 c0 -158 -142 -228 -270 -134 -38 28 -47 27 -30 -4 16 -31
86 -63 149 -68 67 -5 121 21 158 76 28 41 32 131 8 151 -13 11 -15 8 -15 -21z"/>
<path d="M6903 5985 c0 -8 4 -12 9 -9 5 3 6 10 3 15 -9 13 -12 11 -12 -6z"/>
<path d="M4799 5967 c-16 -12 -40 -59 -93 -179 -15 -35 -31 -58 -40 -58 -25 0
-19 -19 9 -32 16 -7 29 -8 34 -2 12 12 121 260 121 273 0 14 -11 13 -31 -2z"/>
<path d="M3873 5938 c-59 -43 -115 -48 -187 -15 -62 28 -74 21 -24 -14 34 -24
113 -36 170 -25 42 8 91 47 87 68 -3 14 -11 11 -46 -14z"/>
<path d="M1821 5917 c-63 -18 -116 -38 -119 -44 -2 -9 4 -9 23 1 15 8 68 24
119 36 50 13 95 27 101 31 14 13 2 11 -124 -24z"/>
<path d="M1345 5840 l-60 -7 55 0 c30 -1 78 2 105 7 l50 7 -45 0 c-25 0 -72
-3 -105 -7z"/>
<path d="M1671 5761 c-12 -50 -24 -98 -27 -106 -4 -8 -2 -15 3 -15 9 0 58 198
50 206 -3 3 -15 -35 -26 -85z"/>
<path d="M5101 5791 c-13 -17 -29 -31 -37 -31 -8 0 -39 -38 -69 -84 -29 -46
-60 -86 -67 -88 -11 -4 -10 -8 1 -21 7 -10 19 -17 25 -17 6 1 34 38 62 83 60
96 87 111 97 50 4 -21 7 -57 7 -80 0 -33 4 -43 16 -43 15 0 16 14 12 120 -5
135 -14 157 -47 111z"/>
<path d="M2495 5759 c-34 -10 -130 -78 -121 -86 3 -3 33 13 67 36 34 22 68 41
75 41 8 0 14 5 14 10 0 6 -1 10 -2 9 -2 0 -16 -5 -33 -10z"/>
<path d="M2587 5746 c-6 -16 2 -28 14 -20 12 7 11 34 0 34 -5 0 -11 -6 -14
-14z"/>
<path d="M6640 5650 c0 -67 4 -110 10 -110 6 0 10 43 10 110 0 67 -4 110 -10
110 -6 0 -10 -43 -10 -110z"/>
<path d="M2933 5727 c-19 -8 -34 -47 -19 -47 20 0 56 22 56 34 0 21 -12 25
-37 13z"/>
<path d="M5300 5667 c-9 -7 -37 -39 -62 -73 -50 -65 -107 -114 -132 -114 -24
0 -19 -26 9 -44 26 -17 55 -21 55 -8 0 4 38 57 85 117 47 61 85 115 85 122 0
16 -20 16 -40 0z"/>
<path d="M2512 5628 c-41 -29 -62 -50 -62 -63 0 -13 3 -16 8 -8 18 28 108 83
137 83 29 1 29 1 11 15 -11 8 -23 15 -26 15 -3 0 -34 -19 -68 -42z"/>
<path d="M2674 5624 c-4 -16 -14 -39 -21 -51 -21 -31 -146 -115 -176 -116 -20
-2 -23 -6 -17 -21 13 -37 15 -36 188 96 29 23 44 43 48 66 8 44 -12 67 -22 26z"/>
<path d="M7125 5631 c-3 -5 -2 -12 3 -15 5 -3 9 1 9 9 0 17 -3 19 -12 6z"/>
<path d="M7176 5447 c3 -10 9 -15 12 -12 3 3 0 11 -7 18 -10 9 -11 8 -5 -6z"/>
<path d="M4736 5388 c-3 -14 -15 -18 -55 -18 -45 0 -120 -25 -121 -41 0 -3 11
-11 25 -17 33 -15 37 -72 5 -72 -11 0 -23 6 -25 13 -3 6 -24 13 -48 14 l-42 2
46 -17 c74 -28 138 -74 139 -99 0 -30 -14 -29 -97 10 -17 7 -26 6 -39 -7 -9
-9 -26 -16 -38 -14 -21 3 -22 6 -9 71 4 21 2 28 -8 27 -28 -4 -38 0 -33 14 3
8 0 17 -6 21 -19 12 -21 0 -5 -38 14 -34 14 -36 -5 -42 -10 -3 -28 -1 -40 5
-16 8 -21 8 -26 -3 -3 -9 -28 -17 -67 -22 -34 -3 -66 -10 -72 -14 -5 -5 -36
-16 -67 -26 -32 -10 -58 -22 -58 -26 0 -5 -8 -18 -17 -29 -30 -35 -93 -21 -93
21 0 18 -33 36 -37 22 -2 -5 -17 -8 -34 -7 -25 2 -29 -1 -24 -17 5 -14 0 -21
-19 -29 -14 -5 -26 -14 -26 -19 0 -12 56 -25 70 -16 16 10 40 -14 40 -41 0
-17 -7 -25 -26 -30 -16 -4 -23 -12 -20 -20 3 -7 -3 -19 -14 -27 -10 -7 -22
-25 -25 -40 -7 -25 -11 -27 -54 -27 -26 0 -56 -7 -67 -15 -12 -9 -31 -12 -52
-9 -39 7 -88 -11 -95 -35 -2 -10 -23 -21 -55 -30 -29 -7 -52 -15 -52 -18 0 -3
8 -33 17 -67 11 -40 17 -101 17 -176 1 -96 -3 -126 -22 -183 -38 -109 -134
-223 -229 -271 -34 -17 -58 -50 -48 -66 3 -6 25 -10 48 -10 47 0 128 -27 183
-60 33 -21 99 -98 91 -107 -2 -2 -28 8 -57 21 -53 24 -78 23 -95 -4 -3 -6 -14
-10 -23 -10 -9 0 -39 -12 -67 -25 -27 -14 -56 -25 -62 -25 -7 0 -37 -13 -67
-30 -64 -34 -107 -39 -158 -17 -50 23 -169 41 -210 33 -44 -8 -58 -37 -58
-119 0 -68 -8 -87 -36 -91 -36 -5 -42 -41 -43 -240 -1 -231 1 -226 -120 -226
-89 0 -117 11 -86 34 13 10 43 15 88 16 64 0 68 1 78 27 6 17 7 81 3 175 l-7
148 -50 26 c-35 17 -59 23 -79 19 -17 -4 -28 -2 -28 4 0 5 15 13 34 17 28 5
41 1 69 -21 22 -16 38 -22 42 -16 3 6 5 46 4 88 l-3 78 -63 -3 c-45 -3 -63 0
-63 9 0 8 15 10 55 5 66 -7 98 5 93 37 -3 20 -9 22 -92 25 -121 4 -126 -1
-126 -122 0 -50 -3 -122 -7 -160 -6 -63 -8 -69 -35 -78 -15 -5 -28 -13 -28
-18 0 -4 -28 -18 -62 -30 -35 -13 -67 -26 -73 -30 -5 -4 -27 -13 -48 -20 -21
-6 -79 -33 -130 -59 l-92 -47 -7 -54 c-3 -30 -6 -126 -7 -213 -1 -122 -4 -158
-13 -155 -9 3 -14 30 -15 79 -2 77 -19 338 -29 448 -4 43 -9 59 -15 50 -6 -10
-9 -6 -10 16 l-1 30 -7 -29 c-3 -17 -8 -30 -11 -30 -3 -1 -20 10 -38 23 l-33
23 -6 -21 c-3 -11 -9 -21 -14 -21 -5 0 -9 -7 -9 -15 0 -12 -13 -15 -55 -15
-41 0 -59 -5 -72 -19 -12 -13 -39 -22 -80 -26 -35 -4 -60 -11 -58 -15 10 -16
-7 -38 -31 -43 -16 -3 -28 1 -35 12 -12 19 -2 -44 12 -69 4 -8 15 -44 24 -80
17 -67 47 -156 64 -187 5 -10 19 -43 31 -73 72 -182 223 -421 394 -625 117
-139 317 -322 337 -309 7 4 9 3 5 -4 -10 -17 17 -20 46 -6 15 8 37 13 50 11
14 -1 24 4 24 13 1 8 2 19 3 24 0 5 7 3 15 -3 10 -9 16 -8 26 4 7 9 19 14 25
11 17 -6 25 38 25 135 0 43 5 81 10 84 6 4 10 -9 11 -32 0 -58 13 -116 25
-120 6 -2 22 13 36 34 105 162 112 170 124 139 6 -15 -100 -185 -116 -187 -6
-1 -15 -2 -21 -3 -6 0 -16 -8 -22 -17 -7 -8 -20 -18 -29 -22 -10 -3 -18 -13
-18 -21 0 -14 58 -56 78 -56 6 0 26 24 44 53 18 29 39 62 46 73 6 10 17 29 24
42 6 12 23 25 37 29 14 3 40 16 56 28 17 12 52 25 79 28 35 5 56 15 76 35 16
17 47 34 75 41 37 9 45 15 36 25 -9 11 -1 14 39 19 28 3 57 12 65 19 25 23 39
33 65 46 14 7 54 28 90 47 36 18 75 34 88 34 24 1 62 22 98 53 12 11 53 30 91
43 38 14 104 45 146 70 47 29 102 52 147 63 38 9 70 21 70 28 0 17 41 41 84
49 20 4 36 13 36 21 0 14 4 15 102 34 56 11 71 27 38 42 -8 4 6 7 33 7 34 1
52 6 64 21 10 12 21 16 27 11 13 -11 66 -3 66 10 0 4 37 -10 83 -31 45 -21
127 -51 182 -66 89 -24 122 -27 305 -32 138 -3 228 0 275 8 112 20 320 86 424
135 l96 45 -4 207 c-4 247 2 313 30 313 23 0 37 29 19 40 -9 6 -9 12 0 30 10
18 9 24 -1 32 -10 7 -8 8 9 5 26 -6 64 11 106 48 16 14 37 25 47 25 10 0 21 5
24 10 3 6 15 10 26 10 10 0 19 7 19 15 0 9 9 15 25 15 14 0 25 5 25 12 0 6 9
3 20 -7 19 -17 20 -17 20 0 0 11 5 15 15 11 8 -3 18 1 22 8 5 6 22 18 40 25
17 7 34 19 37 27 3 8 16 14 30 14 14 0 28 5 31 10 4 6 10 8 15 5 5 -3 11 3 13
12 11 44 5 -163 -8 -262 -40 -306 -144 -603 -313 -900 -384 -673 -1056 -1126
-1839 -1241 -152 -22 -424 -29 -568 -15 -430 42 -750 149 -1139 381 -161 96
-228 145 -367 265 -25 22 -7 2 40 -43 197 -191 523 -386 837 -501 135 -49 368
-107 518 -128 140 -21 529 -23 666 -4 473 64 923 256 1286 549 205 165 446
443 585 674 135 224 253 524 303 771 40 197 50 302 50 532 0 251 -19 416 -69
612 -78 303 -163 492 -343 761 -59 89 -79 112 -98 112 -13 0 -47 9 -75 20 -48
19 -55 20 -98 6 -52 -16 -168 -21 -185 -7 -6 5 -40 11 -76 15 -36 3 -86 9
-112 12 -38 5 -56 1 -98 -20 l-52 -26 -98 19 c-79 16 -108 18 -151 10 -90 -17
-94 -16 -97 10 -2 15 3 28 12 33 28 16 17 26 -33 30 -41 2 -51 0 -55 -14z
m1149 -168 c3 -5 2 -10 -4 -10 -5 0 -13 5 -16 10 -3 6 -2 10 4 10 5 0 13 -4
16 -10z m-1936 -166 c2 -2 -10 -4 -27 -4 -18 0 -32 5 -32 10 0 9 47 4 59 -6z
m1304 -109 c110 -16 273 -68 366 -115 90 -45 75 -83 -17 -44 -77 33 -166 56
-170 45 -2 -6 -13 -11 -24 -11 -19 0 -123 -45 -220 -95 -27 -14 -55 -25 -63
-25 -8 0 -15 -6 -15 -14 0 -8 -15 -17 -34 -20 -19 -4 -39 -13 -45 -20 -6 -8
-25 -16 -42 -20 -17 -3 -28 -10 -24 -16 3 -5 -7 -12 -22 -15 -90 -19 -204 -63
-223 -86 -3 -4 -24 -16 -47 -28 -23 -11 -54 -32 -68 -45 -15 -14 -33 -22 -41
-19 -8 3 -14 0 -14 -7 0 -6 -4 -9 -9 -6 -4 3 -23 -6 -41 -19 -18 -13 -45 -27
-61 -30 -15 -4 -33 -13 -40 -21 -6 -8 -21 -14 -34 -14 -12 0 -30 -9 -39 -19
-10 -11 -31 -23 -46 -26 -16 -3 -34 -13 -41 -21 -6 -8 -17 -14 -24 -14 -7 0
-18 -7 -25 -15 -7 -8 -23 -15 -36 -15 -13 0 -24 -4 -24 -10 0 -5 -6 -10 -14
-10 -7 0 -25 -9 -40 -21 -14 -11 -26 -16 -26 -10 0 5 -11 0 -24 -12 -40 -38
-60 -159 -59 -377 0 -178 0 -183 -13 -125 -37 163 -36 389 1 536 22 84 22 84
-47 104 -35 9 -72 20 -82 23 -16 4 -18 1 -13 -20 10 -39 -1 -40 -60 -8 -30 17
-64 30 -76 30 -41 0 -51 14 -38 50 18 54 15 59 -29 53 l-41 -6 3 98 c3 98 3
99 31 106 23 6 32 3 53 -19 78 -84 92 -93 102 -64 2 7 -5 12 -15 12 -33 1 -56
27 -57 66 -1 45 11 51 44 21 14 -13 38 -32 53 -41 15 -11 27 -28 27 -40 0 -11
7 -32 15 -46 8 -14 19 -35 25 -48 14 -32 33 -17 26 21 -7 34 7 57 36 57 13 0
18 -6 17 -22 -4 -33 20 -88 37 -88 8 0 19 -12 25 -27 8 -22 12 -24 19 -13 13
20 12 33 0 25 -5 -3 -10 -1 -10 5 0 7 6 10 14 7 17 -7 22 -1 61 67 l28 49 -75
-7 -75 -7 -7 32 c-6 31 -1 43 37 92 18 22 43 22 55 1 11 -20 36 -9 28 12 -3 8
1 17 9 20 19 8 45 -13 39 -30 -3 -8 2 -21 11 -30 16 -16 22 -12 94 57 160 153
315 231 536 272 99 18 378 18 498 0z m377 -35 l35 -8 -35 -1 c-19 0 -44 7 -55
16 l-20 16 20 -8 c11 -4 36 -11 55 -15z m-3153 -1242 c-3 -8 -6 -5 -6 6 -1 11
2 17 5 13 3 -3 4 -12 1 -19z m43 -36 c0 -12 -3 -12 -15 -2 -8 7 -15 13 -15 15
0 1 7 2 15 2 8 0 15 -7 15 -15z m55 2 c-9 -9 -19 -13 -23 -10 -3 4 0 11 8 16
24 15 33 11 15 -6z m605 -235 c0 -129 -60 -224 -178 -280 -78 -38 -212 -54
-212 -27 0 19 28 32 112 53 84 21 152 66 188 121 15 24 37 82 50 129 26 95 40
97 40 4z m2533 30 c-4 -21 -1 -34 8 -39 11 -7 9 -13 -6 -31 -19 -20 -20 -37
-20 -234 0 -117 -2 -215 -5 -218 -14 -14 -178 -84 -265 -114 -356 -120 -756
-85 -1038 91 -130 81 -271 240 -284 319 -5 30 -2 33 41 51 25 10 46 23 46 27
0 10 104 59 125 59 7 0 16 4 19 9 3 4 38 18 78 31 40 12 77 28 81 34 5 7 13 3
25 -12 85 -114 107 -134 205 -192 108 -64 209 -101 258 -95 16 2 27 0 24 -5
-3 -4 4 -6 15 -3 11 3 17 9 14 14 -3 5 2 9 11 9 8 0 18 7 21 15 4 10 13 13 25
10 11 -4 19 -2 19 4 0 5 17 17 38 26 35 15 58 27 150 75 20 10 49 22 64 25 15
3 34 12 43 21 11 11 19 13 28 6 16 -14 132 -20 132 -7 1 11 -61 35 -70 27 -3
-3 -5 2 -5 11 0 10 5 17 10 17 6 0 10 -4 10 -9 0 -4 11 -6 25 -4 13 3 24 8 23
12 -3 28 3 33 18 15 13 -15 15 -16 10 -2 -4 12 -1 15 11 11 10 -4 14 -2 10 4
-8 13 24 13 41 0 8 -6 12 -6 12 2 0 6 6 11 14 11 8 0 17 14 21 30 9 40 26 39
18 -1z m-4163 -199 c0 -5 -4 -10 -10 -10 -5 0 -10 5 -10 10 0 6 5 10 10 10 6
0 10 -4 10 -10z m-63 -32 c-3 -8 -6 -5 -6 6 -1 11 2 17 5 13 3 -3 4 -12 1 -19z
m1848 -328 c-3 -5 -14 -10 -23 -9 -14 0 -13 2 3 9 27 11 27 11 20 0z m-65 -24
c0 -2 -7 -7 -16 -10 -8 -3 -12 -2 -9 4 6 10 25 14 25 6z m1097 -22 c-3 -3 -12
-4 -19 -1 -8 3 -5 6 6 6 11 1 17 -2 13 -5z m-1687 -168 c0 -68 11 -96 36 -96
19 0 24 5 24 27 0 32 7 27 14 -10 4 -25 2 -27 -29 -27 -19 0 -45 -4 -59 -10
l-26 -10 0 61 c0 60 12 99 30 99 6 0 10 -15 10 -34z m-181 -384 c8 -15 2 -27
-35 -63 -25 -24 -62 -66 -81 -94 -20 -27 -43 -56 -52 -62 -22 -19 -44 -16 -37
3 9 23 178 234 187 234 5 0 13 -8 18 -18z m226 -212 c3 -5 1 -10 -4 -10 -6 0
-11 5 -11 10 0 6 2 10 4 10 3 0 8 -4 11 -10z m-358 -186 c-3 -3 -12 -4 -19 -1
-8 3 -5 6 6 6 11 1 17 -2 13 -5z"/>
<path d="M3915 4400 c3 -5 8 -10 11 -10 2 0 4 5 4 10 0 6 -5 10 -11 10 -5 0
-7 -4 -4 -10z"/>
<path d="M3980 4349 c0 -6 -7 -8 -16 -5 -8 3 -12 2 -9 -4 5 -9 -23 -14 -64
-13 -24 2 3 -15 44 -26 22 -6 43 -7 46 -3 14 14 22 62 10 62 -6 0 -11 -5 -11
-11z m0 -29 c0 -5 -10 -10 -22 -9 -22 0 -22 1 -3 9 11 5 21 9 23 9 1 1 2 -3 2
-9z"/>
<path d="M5781 5399 c-1 -20 56 -85 66 -75 5 4 -6 20 -23 36 -17 15 -34 34
-37 41 -4 11 -6 10 -6 -2z"/>
<path d="M6732 5376 c-51 -18 -99 -39 -106 -47 -7 -8 -20 -56 -29 -108 -9 -52
-21 -99 -25 -103 -5 -5 -24 11 -43 36 -19 25 -37 46 -42 46 -4 0 13 -24 37
-54 24 -30 46 -60 49 -67 10 -30 25 9 42 113 10 59 21 111 24 117 4 6 58 28
120 50 63 22 116 43 119 46 16 15 -65 -1 -146 -29z"/>
<path d="M1351 5337 c-52 -29 -97 -59 -99 -65 -3 -11 137 65 191 103 47 33 -3
12 -92 -38z"/>
<path d="M5780 5345 c14 -7 27 -11 30 -9 6 7 -22 24 -40 23 -9 0 -5 -6 10 -14z"/>
<path d="M6355 5285 c-5 -2 -40 -6 -77 -10 -36 -3 -74 -13 -85 -21 -16 -13
-15 -14 17 -9 120 19 206 22 228 8 l23 -14 -16 25 c-16 24 -55 33 -90 21z"/>
<path d="M1250 5125 c0 -84 -5 -96 -28 -73 -7 7 -12 8 -12 3 0 -6 12 -18 25
-28 l25 -18 0 101 c0 55 -2 100 -5 100 -3 0 -5 -38 -5 -85z"/>
<path d="M974 5160 c-44 -15 -91 -33 -103 -40 -48 -25 -11 -18 93 19 60 21
105 40 100 43 -5 3 -45 -7 -90 -22z"/>
<path d="M2763 5139 c-15 -15 -17 -105 -3 -114 15 -9 21 16 18 74 -2 42 -5 50
-15 40z"/>
<path d="M3755 5130 c-3 -5 -1 -10 4 -10 6 0 11 5 11 10 0 6 -2 10 -4 10 -3 0
-8 -4 -11 -10z"/>
<path d="M3711 5104 c0 -11 3 -14 6 -6 3 7 2 16 -1 19 -3 4 -6 -2 -5 -13z"/>
<path d="M3720 5010 c0 -5 5 -10 11 -10 5 0 7 5 4 10 -3 6 -8 10 -11 10 -2 0
-4 -4 -4 -10z"/>
<path d="M3730 4980 c0 -5 5 -10 10 -10 6 0 10 5 10 10 0 6 -4 10 -10 10 -5 0
-10 -4 -10 -10z"/>
<path d="M3694 4964 c3 -9 6 -23 6 -32 0 -13 2 -13 14 3 16 22 10 45 -11 45
-10 0 -13 -6 -9 -16z"/>
<path d="M7043 4962 c-21 -35 -63 -206 -53 -216 11 -11 10 -13 45 112 27 95
31 140 8 104z"/>
<path d="M3460 4831 c0 -6 4 -13 10 -16 6 -3 7 1 4 9 -7 18 -14 21 -14 7z"/>
<path d="M1040 4655 c-44 -43 -80 -86 -80 -95 0 -11 33 17 87 71 47 49 84 92
80 95 -4 4 -43 -28 -87 -71z"/>
<path d="M486 4662 c105 -90 135 -114 139 -110 5 5 -131 118 -142 118 -4 0 -3
-4 3 -8z"/>
<path d="M2427 4612 c-14 -15 -17 -39 -16 -138 3 -229 13 -359 28 -359 11 0
13 44 12 238 l-2 237 86 0 c77 0 86 2 83 18 -3 14 -17 17 -89 20 -73 2 -88 0
-102 -16z"/>
<path d="M2765 4596 c-14 -21 -15 -52 -10 -233 4 -114 8 -214 10 -220 3 -7 11
-10 20 -7 14 6 15 32 9 225 -6 185 -5 219 7 219 24 -1 93 -36 113 -58 26 -30
39 -17 20 19 -10 20 -33 39 -67 55 -65 30 -83 30 -102 0z"/>
<path d="M6500 4600 c-24 -7 -23 -7 10 -13 114 -21 214 -36 218 -32 13 12 -17
24 -90 35 -46 6 -90 13 -98 15 -8 1 -26 -1 -40 -5z"/>
<path d="M7090 4584 c-14 -2 -60 -6 -103 -9 l-78 -7 -55 -115 c-38 -79 -52
-119 -45 -126 7 -7 26 23 61 94 28 57 58 110 67 117 9 6 38 12 63 12 85 0 171
12 167 24 -4 12 -35 16 -77 10z"/>
<path d="M995 4440 c4 -19 11 -39 16 -44 4 -5 3 8 -2 30 -14 50 -24 60 -14 14z"/>
<path d="M704 4370 c-45 -33 -85 -67 -88 -76 -4 -9 13 -1 41 20 27 19 71 51
100 71 l51 36 112 -56 c62 -31 114 -54 117 -51 3 3 0 17 -5 33 -9 25 -11 26
-11 5 -1 -21 -5 -20 -101 28 -55 27 -108 50 -117 50 -10 0 -55 -27 -99 -60z"/>
<path d="M177 4195 c7 -49 13 -58 13 -19 0 16 -5 36 -10 44 -6 10 -7 2 -3 -25z"/>
<path d="M151 4184 c0 -11 3 -14 6 -6 3 7 2 16 -1 19 -3 4 -6 -2 -5 -13z"/>
<path d="M7186 4052 c-13 -21 -38 -66 -56 -101 -30 -60 -31 -65 -14 -80 9 -9
14 -10 10 -4 -6 11 72 171 95 198 12 12 11 25 -1 25 -5 0 -21 -17 -34 -38z"/>
<path d="M1761 4041 c-7 -5 -21 -6 -31 -4 -20 5 -41 -18 -22 -25 7 -2 12 -8
12 -13 0 -16 42 -57 64 -63 18 -4 26 -18 36 -61 19 -78 40 -74 40 9 0 66 -6
76 -48 76 -35 0 -44 15 -34 54 11 37 7 42 -17 27z"/>
<path d="M7591 4024 c0 -11 3 -14 6 -6 3 7 2 16 -1 19 -3 4 -6 -2 -5 -13z"/>
<path d="M1634 4021 c3 -5 15 -7 26 -4 28 7 25 13 -6 13 -14 0 -23 -4 -20 -9z"/>
<path d="M967 3983 c-48 -78 -87 -151 -87 -164 0 -21 15 -1 74 104 30 53 50
97 45 97 -5 0 -19 -17 -32 -37z"/>
<path d="M6590 3866 c0 -9 200 -88 212 -83 17 6 -158 87 -188 87 -13 0 -24 -2
-24 -4z"/>
<path d="M371 3795 c13 -12 199 -93 199 -86 0 9 -172 91 -191 91 -7 0 -10 -2
-8 -5z"/>
<path d="M7593 3760 c0 -25 2 -35 4 -22 2 12 2 32 0 45 -2 12 -4 2 -4 -23z"/>
<path d="M6985 3722 c-16 -11 -120 -134 -140 -164 -33 -53 3 -28 58 40 30 37
66 77 79 90 l24 22 95 -20 c52 -11 105 -22 117 -25 16 -4 23 -2 20 6 -2 7 -53
22 -113 35 -125 26 -126 26 -140 16z"/>
<path d="M1 1858 l-1 -1858 1798 1 c1015 1 1769 5 1732 10 -36 5 -90 11 -121
14 -31 3 -96 10 -145 16 -49 6 -104 12 -122 13 -18 2 -35 6 -39 10 -3 3 -16 6
-28 6 -11 0 -63 11 -115 24 -52 14 -106 27 -120 30 -14 3 -36 8 -50 11 -14 3
-35 7 -47 9 -13 2 -29 9 -37 15 -8 6 -23 13 -33 15 -44 9 -125 38 -243 86 -69
29 -145 60 -170 70 -58 23 -91 38 -110 49 -8 6 -40 22 -70 36 -30 14 -77 39
-105 55 -27 17 -69 39 -92 50 -24 12 -43 25 -43 30 0 7 -92 65 -130 81 -8 4
-33 23 -55 43 -22 21 -74 58 -115 84 -41 26 -77 51 -79 56 -5 11 -27 32 -82
76 -24 19 -59 50 -77 68 -19 17 -37 32 -40 32 -12 1 -47 34 -76 72 -15 21 -32
35 -37 32 -5 -3 -9 -2 -9 3 0 4 -16 26 -36 48 -20 22 -49 55 -65 73 -16 18
-29 30 -29 26 0 -4 -12 10 -26 31 -14 21 -37 47 -50 57 -13 11 -24 26 -24 33
0 8 -13 24 -29 36 -16 12 -48 49 -70 83 -22 33 -61 89 -86 124 -25 34 -45 67
-45 72 0 6 -4 10 -10 10 -5 0 -22 21 -37 48 -15 26 -30 49 -33 52 -3 3 -12 19
-20 35 -8 17 -18 32 -22 35 -3 3 -23 37 -43 75 -20 39 -49 93 -65 120 -16 28
-37 66 -46 85 -8 19 -33 72 -55 117 -21 45 -39 85 -39 90 0 4 -7 22 -16 38 -9
17 -25 57 -35 90 -11 33 -27 72 -35 88 -8 15 -13 27 -10 27 3 0 -4 24 -15 52
-11 29 -22 64 -24 78 -2 14 -11 45 -19 69 -9 25 -25 90 -37 145 -11 56 -24
117 -29 136 -5 19 -11 49 -14 65 -3 17 -8 41 -11 55 -12 62 -45 340 -46 390 0
30 -4 73 -8 95 -5 22 -9 -796 -10 -1817z"/>
<path d="M7590 3618 c-1 -29 -5 -82 -9 -118 -5 -36 -14 -105 -21 -155 -6 -49
-18 -121 -26 -160 -25 -111 -45 -209 -48 -225 -4 -26 -17 -72 -47 -165 -16
-49 -30 -101 -33 -115 -2 -14 -18 -57 -35 -97 -17 -40 -43 -105 -57 -145 -14
-40 -39 -98 -54 -129 -16 -31 -27 -59 -24 -61 2 -3 -2 -11 -11 -18 -8 -7 -15
-21 -15 -31 0 -11 -5 -19 -12 -19 -6 0 -8 -3 -5 -6 4 -4 -3 -21 -16 -38 -12
-16 -22 -35 -23 -41 -1 -5 -15 -32 -31 -60 -16 -27 -47 -81 -68 -120 -21 -38
-48 -83 -61 -98 -13 -16 -24 -33 -24 -39 0 -6 -44 -70 -98 -142 -54 -72 -107
-144 -117 -160 -10 -15 -30 -40 -44 -55 -14 -15 -44 -49 -66 -76 -56 -67 -403
-415 -414 -415 -5 0 -29 -20 -54 -45 -26 -25 -51 -45 -58 -45 -6 0 -8 -7 -5
-16 3 -8 2 -13 -3 -10 -5 3 -20 -5 -34 -18 -14 -13 -28 -21 -31 -18 -3 3 -6 1
-6 -5 0 -5 -16 -18 -35 -29 -19 -10 -35 -22 -35 -26 0 -5 -7 -8 -15 -8 -8 0
-15 -3 -15 -7 0 -5 -21 -21 -48 -38 -26 -16 -51 -33 -57 -37 -34 -27 -146 -98
-153 -98 -5 0 -15 -6 -21 -14 -7 -8 -59 -38 -117 -66 -57 -29 -107 -56 -110
-61 -3 -5 -12 -9 -19 -9 -8 0 -65 -25 -127 -55 -61 -31 -118 -57 -127 -59 -44
-8 -71 -19 -71 -28 0 -5 -4 -7 -9 -4 -5 4 -11 1 -13 -5 -2 -6 -16 -13 -31 -14
-34 -4 -128 -35 -144 -48 -7 -5 -13 -7 -13 -4 0 2 -30 -4 -67 -14 -97 -28
-230 -59 -288 -69 -27 -5 -104 -18 -170 -30 -66 -12 -185 -27 -265 -34 -125
-12 105 -14 1683 -15 l1827 -1 0 1835 c0 1009 -2 1835 -5 1835 -3 0 -5 -24 -5
-52z"/>
<path d="M681 3561 c-40 -50 -71 -95 -69 -101 1 -5 26 18 53 52 28 34 62 76
77 93 l28 32 107 -23 c116 -25 143 -28 143 -16 0 6 -121 32 -226 48 l-41 6
-72 -91z"/>
<path d="M5890 3500 c0 -11 7 -20 15 -20 8 0 15 9 15 20 0 11 -7 20 -15 20 -8
0 -15 -9 -15 -20z"/>
<path d="M5990 3444 c0 -8 5 -12 10 -9 6 4 8 11 5 16 -9 14 -15 11 -15 -7z"/>
<path d="M6062 3370 c20 -11 39 -29 43 -40 4 -11 10 -18 15 -15 5 3 6 13 3 23
-4 13 -2 13 10 -3 15 -18 16 -19 17 -2 0 10 5 15 10 12 6 -3 10 -2 10 4 0 21
-46 41 -95 41 l-50 -1 37 -19z"/>
<path d="M90 3341 c0 -6 4 -13 10 -16 6 -3 7 1 4 9 -7 18 -14 21 -14 7z"/>
<path d="M1043 3278 c-18 -24 -63 -202 -53 -212 5 -5 11 2 16 20 3 16 17 67
30 114 23 86 25 101 7 78z"/>
<path d="M7071 3099 l-74 -79 18 -60 c10 -33 20 -58 22 -56 3 2 -3 28 -11 57
l-16 53 82 83 c45 46 76 82 68 82 -8 -1 -48 -37 -89 -80z"/>
<path d="M6581 3066 c46 -36 85 -63 88 -60 2 2 2 5 0 7 -2 2 -36 29 -75 60
-39 31 -77 57 -84 57 -7 0 25 -29 71 -64z"/>
<path d="M510 2912 c0 -4 35 -14 78 -21 42 -7 91 -15 107 -18 21 -4 27 -2 20
5 -5 6 -50 18 -100 26 -105 18 -105 19 -105 8z"/>
<path d="M1011 2889 c-52 -5 -98 -12 -102 -16 -11 -11 -109 -212 -109 -223 0
-31 23 3 68 99 49 106 51 108 89 114 21 4 59 7 84 7 69 0 139 11 133 21 -6 10
-29 10 -163 -2z"/>
<path d="M6755 2839 c-81 -58 -107 -80 -101 -87 3 -2 48 26 101 62 l95 66 111
-55 c61 -31 113 -54 115 -52 2 2 -3 21 -11 43 -12 30 -14 33 -12 12 3 -16 3
-28 1 -28 -1 0 -44 20 -95 45 -51 25 -102 45 -113 44 -12 0 -52 -23 -91 -50z"/>
<path d="M7041 2874 c0 -11 3 -14 6 -6 3 7 2 16 -1 19 -3 4 -6 -2 -5 -13z"/>
<path d="M6620 2633 c0 -21 27 -166 36 -192 2 -8 7 -11 10 -8 6 5 -33 208 -42
216 -2 2 -4 -5 -4 -16z"/>
<path d="M1278 2587 c-13 -30 -10 -233 2 -221 7 7 10 56 8 125 -2 63 -6 106
-10 96z"/>
<path d="M6286 2397 c3 -10 9 -15 12 -12 3 3 0 11 -7 18 -10 9 -11 8 -5 -6z"/>
<path d="M6795 2299 c-50 -28 -96 -56 -102 -61 -9 -7 -13 -44 -13 -119 0 -60
-3 -109 -6 -109 -3 0 -24 18 -47 39 -54 51 -118 101 -127 101 -24 0 -188 -66
-205 -82 -15 -15 6 -10 94 21 92 32 118 38 130 28 9 -6 50 -42 92 -79 42 -38
79 -68 83 -68 3 0 7 57 8 126 l3 127 98 55 c86 50 114 72 89 72 -4 0 -48 -23
-97 -51z"/>
<path d="M6330 2336 c0 -2 8 -10 18 -17 15 -13 16 -12 3 4 -13 16 -21 21 -21
13z"/>
<path d="M1361 2204 c-107 -39 -121 -48 -121 -77 0 -34 -33 -177 -40 -177 -4
0 -28 27 -54 60 -42 54 -56 67 -56 57 0 -2 9 -15 21 -28 12 -13 39 -50 62 -82
48 -68 46 -71 72 81 13 70 23 106 34 111 9 5 60 23 113 41 54 17 100 36 104
41 10 17 -41 7 -135 -27z"/>
<path d="M5053 2195 c-52 -35 -83 -69 -83 -92 0 -20 18 -15 25 7 4 11 32 39
62 62 49 36 59 39 76 28 17 -10 19 -10 13 5 -3 9 -6 19 -6 21 0 14 -43 -1 -87
-31z"/>
<path d="M918 2106 c-108 -16 -111 -30 -3 -20 50 5 107 9 127 8 29 0 35 3 26
13 -12 15 -45 15 -150 -1z"/>
<path d="M5122 2075 c-42 -31 -62 -52 -62 -66 0 -19 2 -19 28 8 15 16 46 42
69 58 37 24 45 26 60 14 15 -12 16 -12 10 4 -4 10 -7 21 -7 23 0 16 -46 -3
-98 -41z"/>
<path d="M5301 2063 c-8 -3 -27 -20 -43 -38 -16 -19 -51 -48 -79 -66 -41 -26
-61 -32 -101 -31 -34 1 -48 -3 -45 -11 5 -17 81 -21 109 -6 51 27 198 141 192
150 -6 10 -12 10 -33 2z"/>
<path d="M4946 2035 c7 -17 51 -31 62 -20 9 9 -27 35 -50 35 -11 0 -15 -5 -12
-15z"/>
<path d="M1690 1984 c1 -17 48 -196 54 -201 16 -16 12 10 -12 99 -24 84 -42
130 -42 102z"/>
<path d="M2947 1973 c-8 -10 -35 -64 -59 -121 -33 -79 -48 -104 -65 -109 -13
-3 -23 -8 -23 -12 0 -9 46 -31 63 -31 11 0 127 255 127 279 0 17 -25 13 -43
-6z"/>
<path d="M6204 1948 c-12 -19 -18 -225 -6 -213 10 10 28 225 18 225 -3 0 -8
-5 -12 -12z"/>
<path d="M3240 1847 c-64 -32 -94 -143 -49 -183 21 -19 22 -19 14 4 -11 37 13
119 42 142 34 26 98 26 141 0 44 -27 37 -3 -8 28 -37 25 -100 29 -140 9z"/>
<path d="M4350 1847 c0 -9 6 -34 14 -54 8 -21 17 -51 21 -67 3 -15 8 -26 11
-23 7 7 -26 139 -37 152 -6 5 -9 2 -9 -8z"/>
<path d="M3460 1746 c0 -117 -67 -179 -171 -160 -46 9 -68 21 -106 57 -44 41
-46 11 -3 -32 71 -70 237 -68 284 4 24 37 35 101 25 140 -16 56 -29 51 -29 -9z"/>
<path d="M3805 1791 c-12 -5 -38 -20 -59 -35 l-38 -25 26 -7 c21 -5 32 -1 50
19 31 34 75 42 121 22 45 -18 53 -15 25 10 -22 20 -95 29 -125 16z"/>
<path d="M1379 1713 c35 -46 67 -83 72 -83 12 0 -70 106 -108 141 -14 13 2
-13 36 -58z"/>
<path d="M4803 1767 c-20 -9 -38 -35 -30 -43 6 -6 67 17 67 24 -1 21 -16 29
-37 19z"/>
<path d="M4004 1682 c-1 -66 -27 -110 -77 -133 -54 -24 -101 -24 -156 1 -45
21 -59 21 -46 0 25 -40 152 -52 222 -21 66 30 103 106 82 168 -15 46 -24 41
-25 -15z"/>
<path d="M1945 1689 c-22 -12 -68 -41 -102 -66 -71 -50 -71 -50 -53 -192 6
-41 8 -76 5 -79 -2 -2 -41 25 -87 62 -48 39 -92 66 -105 66 -35 0 -185 -59
-208 -82 -18 -17 -11 -16 50 7 118 45 147 55 160 55 12 0 23 -8 139 -95 32
-25 61 -45 65 -45 3 0 3 39 -1 88 -13 172 -21 151 87 222 53 35 98 67 101 72
9 14 -9 9 -51 -13z"/>
<path d="M4465 1633 c-33 -7 -80 -20 -105 -27 -25 -8 -60 -17 -77 -21 -34 -7
-55 -25 -30 -25 9 0 77 16 154 35 76 19 139 35 141 35 1 0 2 5 2 10 0 12 -7
11 -85 -7z"/>
<path d="M6270 1573 c-52 -13 -99 -28 -103 -33 -5 -4 -20 -54 -33 -111 -14
-57 -29 -106 -34 -109 -6 -4 -5 -13 3 -24 12 -16 17 -3 43 105 l29 124 118 31
c65 18 121 35 124 38 13 13 -56 3 -147 -21z"/>
<path d="M5812 1500 c-35 -4 -68 -12 -75 -19 -9 -9 2 -11 53 -5 36 3 93 7 127
8 37 0 61 5 60 11 -4 13 -82 15 -165 5z"/>
<path d="M5612 1368 c-23 -43 -61 -183 -53 -191 5 -5 23 38 41 95 18 56 35
106 37 111 2 4 0 7 -5 7 -5 0 -14 -10 -20 -22z"/>
<path d="M2517 1225 c-74 -83 -76 -85 -65 -117 15 -45 22 -50 13 -10 -6 31 -2
39 56 105 92 105 93 107 82 107 -6 0 -45 -38 -86 -85z"/>
<path d="M1995 1177 c64 -47 130 -88 105 -66 -51 45 -140 109 -151 109 -7 0
14 -19 46 -43z"/>
<path d="M3288 1073 c-35 -40 -125 -243 -93 -212 7 8 115 229 111 229 -1 0
-10 -8 -18 -17z"/>
<path d="M5065 1050 c-12 -4 16 -13 75 -24 52 -10 105 -19 118 -22 12 -2 22 0
22 4 0 13 -193 50 -215 42z"/>
<path d="M4903 973 c-46 -61 -93 -138 -93 -156 0 -9 5 -19 10 -22 6 -3 10 2
10 12 0 10 11 34 24 53 62 92 96 150 87 150 -5 0 -22 -17 -38 -37z"/>
<path d="M2219 949 c-81 -55 -121 -90 -114 -97 2 -2 45 25 94 62 50 36 96 66
103 66 7 0 57 -18 111 -40 103 -42 117 -46 117 -30 0 6 -7 10 -16 10 -9 0 -61
18 -115 40 -55 22 -101 40 -102 40 -2 0 -37 -23 -78 -51z"/>
<path d="M5478 990 c-17 -11 -118 -192 -118 -213 1 -19 26 20 75 115 l46 88
130 0 c84 0 128 4 124 10 -8 13 -234 13 -257 0z"/>
<path d="M3866 967 c3 -10 9 -15 12 -12 3 3 0 11 -7 18 -10 9 -11 8 -5 -6z"/>
<path d="M3880 934 c0 -6 7 -19 16 -30 14 -18 14 -18 3 6 -14 31 -19 36 -19
24z"/>
<path d="M3910 870 c0 -5 5 -10 11 -10 5 0 7 5 4 10 -3 6 -8 10 -11 10 -2 0
-4 -4 -4 -10z"/>
<path d="M2685 820 c69 -31 195 -76 195 -70 0 10 -175 80 -198 79 -14 0 -14
-2 3 -9z"/>
<path d="M4290 825 c0 -10 191 -96 203 -92 6 2 -31 25 -83 51 -88 43 -120 53
-120 41z"/>
<path d="M4068 743 c-40 -37 -76 -72 -80 -78 -4 -6 5 -57 19 -113 14 -57 23
-105 21 -108 -3 -3 -21 4 -39 15 -67 40 -149 81 -163 81 -20 0 -168 -85 -190
-109 -11 -12 -16 -21 -13 -21 4 0 49 25 102 55 52 30 100 55 106 55 6 0 58
-25 115 -56 57 -30 104 -52 104 -47 0 5 -11 58 -25 118 l-26 110 88 82 c52 49
81 83 71 83 -9 0 -49 -30 -90 -67z"/>
<path d="M3490 796 c0 -8 153 -136 163 -136 15 0 -14 30 -85 87 -63 50 -78 59
-78 49z"/>
<path d="M3006 620 c-42 -51 -76 -97 -76 -103 1 -12 35 23 120 121 l45 52 110
-15 c130 -18 142 -18 130 -6 -6 5 -53 14 -105 20 -52 6 -107 14 -121 17 -23 4
-35 -5 -103 -86z"/>
<path d="M4597 577 c-42 -47 -77 -89 -77 -93 0 -5 40 31 88 79 55 55 94 86
103 82 52 -19 229 -61 227 -53 -4 11 -167 57 -228 65 -33 4 -39 0 -113 -80z"/>
<path d="M3398 173 c7 -3 16 -2 19 1 4 3 -2 6 -13 5 -11 0 -14 -3 -6 -6z"/>
<path d="M3773 3 c26 -2 67 -2 90 0 23 2 2 3 -48 3 -49 0 -68 -1 -42 -3z"/>
</g>
</svg>
